# xmcd CD database file
# Copyright (C) 1993-2000  Ti Kan
#
# Track frame offsets:
#	150
#	12930
#	23877
#	36167
#	49477
#	65130
#	81275
#	93727
#	108812
#	122377
#	139915
#	158107
#	169497
#	181232
#
# Disc length: 2641 seconds
#
# Revision: 2
# Processed by: cddbd v1.4PL0 Copyright (c) Steve Scherf et al.
# Submitted via: xmcd 2.6 PL0
#
DISCID=bf0a4f0e
DTITLE=David Cline  -  Heart And Soul
DYEAR=1900
DGENRE=
TTITLE0=Honky Tonkin'
TTITLE1=Hello Walls
TTITLE2=I Don't Hurt Anymore
TTITLE3=It'll Never Be The Same
TTITLE4=Without You
TTITLE5=My Bride
TTITLE6=That Woman Is My Wife
TTITLE7=Another Precious Year
TTITLE8=Snap Your Fingers
TTITLE9=Heart And Soul
TTITLE10=Unforgetable Angel Of Gold
TTITLE11=Big Boss Man
TTITLE12=Ghost Riders In The Sky
TTITLE13=I Think I'm A Cowboy Now
EXTD=
EXTT0=
EXTT1=
EXTT2=
EXTT3=
EXTT4=
EXTT5=
EXTT6=
EXTT7=
EXTT8=
EXTT9=
EXTT10=
EXTT11=
EXTT12=
EXTT13=
PLAYORDER=
